{
  "accessors": [
    {
      "bufferView": 2,
      "componentType": 5126,
      "count": 5928,
      "max": [
        0.57806801795959473,
        1.5403529405593872,
        0.25109800696372986
      ],
      "min": [
        -0.51487702131271362,
        0.5939670205116272,
        -0.25902199745178223
      ],
      "type": "VEC3"
    },
    {
      "bufferView": 2,
      "byteOffset": 71136,
      "componentType": 5126,
      "count": 5928,
      "max": [
        0.99806672334671021,
        0.91468441486358643,
        0.99890321493148804
      ],
      "min": [
        -0.99811208248138428,
        -0.97133243083953857,
        -0.99888491630554199
      ],
      "type": "VEC3"
    },
    {
      "bufferView": 1,
      "componentType": 5126,
      "count": 5928,
      "max": [
        0.875,
        -0
      ],
      "min": [
        0.125,
        -1
      ],
      "type": "VEC2"
    },
    {
      "bufferView": 0,
      "componentType": 5125,
      "count": 5928,
      "max": [
        5927
      ],
      "min": [
        0
      ],
      "type": "SCALAR"
    },
    {
      "bufferView": 2,
      "byteOffset": 142272,
      "componentType": 5126,
      "count": 298,
      "max": [
        0.51734602451324463,
        1.1276559829711914,
        0.25158599019050598
      ],
      "min": [
        -0.51734602451324463,
        -0.011064000427722931,
        -0.25144100189208984
      ],
      "type": "VEC3"
    },
    {
      "bufferView": 2,
      "byteOffset": 145848,
      "componentType": 5126,
      "count": 298,
      "max": [
        0.99513417482376099,
        1,
        0.99988317489624023
      ],
      "min": [
        -0.99513417482376099,
        -1,
        -0.99989920854568481
      ],
      "type": "VEC3"
    },
    {
      "bufferView": 1,
      "byteOffset": 47424,
      "componentType": 5126,
      "count": 298,
      "max": [
        0.875,
        -0
      ],
      "min": [
        0.125,
        -1
      ],
      "type": "VEC2"
    },
    {
      "bufferView": 0,
      "byteOffset": 23712,
      "componentType": 5125,
      "count": 324,
      "max": [
        297
      ],
      "min": [
        0
      ],
      "type": "SCALAR"
    }
  ],
  "asset": {
    "extras": {
      "author": "IronEqual (https://sketchfab.com/ie-niels)",
      "license": "CC-BY-4.0 (http://creativecommons.org/licenses/by/4.0/)",
      "source": "https://sketchfab.com/3d-models/french-fries-from-poly-by-google-ed31ca1893f544b2a966adc0cfaac9e6",
      "title": "French fries from Poly by Google"
    },
    "generator": "Sketchfab-9.97.0",
    "version": "2.0"
  },
  "bufferViews": [
    {
      "buffer": 0,
      "byteLength": 25008,
      "byteOffset": 0,
      "name": "floatBufferViews",
      "target": 34963
    },
    {
      "buffer": 0,
      "byteLength": 49808,
      "byteOffset": 25008,
      "byteStride": 8,
      "name": "floatBufferViews",
      "target": 34962
    },
    {
      "buffer": 0,
      "byteLength": 149424,
      "byteOffset": 74816,
      "byteStride": 12,
      "name": "floatBufferViews",
      "target": 34962
    }
  ],
  "buffers": [
    {
      "byteLength": 224240,
      "uri": "scene.bin"
    }
  ],
  "materials": [
    {
      "doubleSided": true,
      "emissiveFactor": [
        0,
        0,
        0
      ],
      "name": "lambert3SG",
      "pbrMetallicRoughness": {
        "baseColorFactor": [
          0.90000000000000002,
          0.42999999999999999,
          0.059999999999999998,
          1
        ],
        "metallicFactor": 0,
        "roughnessFactor": 0.96994800000000003
      }
    },
    {
      "doubleSided": true,
      "emissiveFactor": [
        0,
        0,
        0
      ],
      "name": "lambert2SG",
      "pbrMetallicRoughness": {
        "baseColorFactor": [
          0.67000000000000004,
          0.02,
          0.02,
          1
        ],
        "metallicFactor": 0,
        "roughnessFactor": 0.96994800000000003
      }
    }
  ],
  "meshes": [
    {
      "primitives": [
        {
          "attributes": {
            "NORMAL": 1,
            "POSITION": 0,
            "TEXCOORD_0": 2
          },
          "indices": 3,
          "material": 0,
          "mode": 4
        }
      ]
    },
    {
      "primitives": [
        {
          "attributes": {
            "NORMAL": 5,
            "POSITION": 4,
            "TEXCOORD_0": 6
          },
          "indices": 7,
          "material": 1,
          "mode": 4
        }
      ]
    }
  ],
  "nodes": [
    {
      "children": [
        1
      ],
      "name": "RootNode (gltf orientation matrix)",
      "rotation": [
        -0.70710678118654746,
        -0,
        -0,
        0.70710678118654757
      ]
    },
    {
      "children": [
        2
      ],
      "name": "RootNode (model correction matrix)"
    },
    {
      "children": [
        3
      ],
      "name": "root"
    },
    {
      "children": [
        4
      ],
      "matrix": [
        1,
        0,
        0,
        0,
        0,
        2.2204460492503131e-16,
        1,
        0,
        0,
        -1,
        2.2204460492503131e-16,
        0,
        0,
        0,
        0,
        1
      ],
      "name": "GLTF_SceneRootNode"
    },
    {
      "children": [
        5,
        6
      ],
      "name": "node-0_0"
    },
    {
      "mesh": 0,
      "name": ""
    },
    {
      "mesh": 1,
      "name": ""
    }
  ],
  "scene": 0,
  "scenes": [
    {
      "name": "OSG_Scene",
      "nodes": [
        0
      ]
    }
  ]
}

