{
  "accessors": [
    {
      "bufferView": 2,
      "componentType": 5126,
      "count": 4442,
      "max": [
        6.407887935638428,
        11.490309715270996,
        6.154305934906006
      ],
      "min": [
        -6.163219928741455,
        0.003066000062972307,
        -6.038299083709717
      ],
      "type": "VEC3"
    },
    {
      "bufferView": 2,
      "byteOffset": 53304,
      "componentType": 5126,
      "count": 4442,
      "max": [
        1.0,
        1.0,
        1.0
      ],
      "min": [
        -1.0,
        -1.0,
        -1.0
      ],
      "type": "VEC3"
    },
    {
      "bufferView": 3,
      "componentType": 5126,
      "count": 4442,
      "max": [
        1.0,
        0.9986437559127808,
        0.9991953372955322,
        1.0
      ],
      "min": [
        -0.9999935626983643,
        -0.9997730851173401,
        -0.999585747718811,
        1.0
      ],
      "type": "VEC4"
    },
    {
      "bufferView": 1,
      "componentType": 5126,
      "count": 4442,
      "max": [
        0.9940840005874634,
        0.9925060272216797
      ],
      "min": [
        0.00938700046390295,
        0.0061530000530183315
      ],
      "type": "VEC2"
    },
    {
      "bufferView": 0,
      "componentType": 5125,
      "count": 24852,
      "type": "SCALAR"
    },
    {
      "bufferView": 2,
      "byteOffset": 106608,
      "componentType": 5126,
      "count": 6890,
      "max": [
        6.905710220336914,
        8.443059921264648,
        7.667421817779541
      ],
      "min": [
        -7.08537483215332,
        3.6972639560699463,
        -6.985962867736816
      ],
      "type": "VEC3"
    },
    {
      "bufferView": 2,
      "byteOffset": 189288,
      "componentType": 5126,
      "count": 6890,
      "max": [
        0.9999348521232605,
        1.0,
        0.9999489784240723
      ],
      "min": [
        -0.9995693564414978,
        -1.0,
        -0.9999998807907104
      ],
      "type": "VEC3"
    },
    {
      "bufferView": 3,
      "byteOffset": 71072,
      "componentType": 5126,
      "count": 6890,
      "max": [
        0.9999940991401672,
        0.9994643926620483,
        0.9998331665992737,
        1.0
      ],
      "min": [
        -0.9999854564666748,
        -0.9993850588798523,
        -0.9667404890060425,
        -1.0
      ],
      "type": "VEC4"
    },
    {
      "bufferView": 1,
      "byteOffset": 35536,
      "componentType": 5126,
      "count": 6890,
      "max": [
        0.9898899793624878,
        0.992808997631073
      ],
      "min": [
        0.005975999869406223,
        0.008886000141501427
      ],
      "type": "VEC2"
    },
    {
      "bufferView": 0,
      "byteOffset": 99408,
      "componentType": 5125,
      "count": 37176,
      "type": "SCALAR"
    }
  ],
  "asset": {
    "extras": {
      "author": "ocutavhia (https://sketchfab.com/ocutavhia)",
      "license": "CC-BY-4.0 (http://creativecommons.org/licenses/by/4.0/)",
      "source": "https://sketchfab.com/3d-models/b58ed4e4f6a447c083f4b9f444e81477",
      "title": "ハンバーガー"
    },
    "generator": "Sketchfab-11.53.2",
    "version": "2.0"
  },
  "bufferViews": [
    {
      "buffer": 0,
      "byteLength": 248112,
      "name": "floatBufferViews",
      "target": 34963
    },
    {
      "buffer": 0,
      "byteLength": 90656,
      "byteOffset": 248112,
      "byteStride": 8,
      "name": "floatBufferViews",
      "target": 34962
    },
    {
      "buffer": 0,
      "byteLength": 271968,
      "byteOffset": 338768,
      "byteStride": 12,
      "name": "floatBufferViews",
      "target": 34962
    },
    {
      "buffer": 0,
      "byteLength": 181312,
      "byteOffset": 610736,
      "byteStride": 16,
      "name": "floatBufferViews",
      "target": 34962
    }
  ],
  "buffers": [
    {
      "byteLength": 792048,
      "uri": "scene.bin"
    }
  ],
  "images": [
    {
      "uri": "textures/Bans00_baseColor.png"
    },
    {
      "uri": "textures/Bans00_metallicRoughness.png"
    },
    {
      "uri": "textures/Bans00_normal.png"
    },
    {
      "uri": "textures/Retas00_baseColor.png"
    },
    {
      "uri": "textures/Retas00_metallicRoughness.png"
    },
    {
      "uri": "textures/Retas00_normal.png"
    }
  ],
  "materials": [
    {
      "alphaMode": "BLEND",
      "doubleSided": true,
      "name": "Bans00",
      "normalTexture": {
        "index": 2
      },
      "occlusionTexture": {
        "index": 1
      },
      "pbrMetallicRoughness": {
        "baseColorTexture": {
          "index": 0
        },
        "metallicRoughnessTexture": {
          "index": 1
        }
      }
    },
    {
      "alphaMode": "BLEND",
      "doubleSided": true,
      "name": "Retas00",
      "normalTexture": {
        "index": 5
      },
      "occlusionTexture": {
        "index": 4
      },
      "pbrMetallicRoughness": {
        "baseColorTexture": {
          "index": 3
        },
        "metallicRoughnessTexture": {
          "index": 4
        }
      }
    }
  ],
  "meshes": [
    {
      "name": "defaultMaterial",
      "primitives": [
        {
          "attributes": {
            "NORMAL": 1,
            "POSITION": 0,
            "TANGENT": 2,
            "TEXCOORD_0": 3
          },
          "indices": 4,
          "material": 0,
          "mode": 4
        }
      ]
    },
    {
      "name": "defaultMaterial",
      "primitives": [
        {
          "attributes": {
            "NORMAL": 6,
            "POSITION": 5,
            "TANGENT": 7,
            "TEXCOORD_0": 8
          },
          "indices": 9,
          "material": 1,
          "mode": 4
        }
      ]
    }
  ],
  "nodes": [
    {
      "children": [
        1
      ],
      "matrix": [
        1.0,
        1.6081226229577292e-16,
        3.5707495248565405e-32,
        0.0,
        0.0,
        2.220446049250313e-16,
        -1.0,
        0.0,
        -1.6081226229577292e-16,
        1.0,
        2.220446049250313e-16,
        0.0,
        9.298117831235686e-16,
        2.4734125858572067e-09,
        -1.0894198432254143e-08,
        1.0
      ],
      "name": "Sketchfab_model"
    },
    {
      "children": [
        2
      ],
      "matrix": [
        1.0,
        0.0,
        0.0,
        0.0,
        0.0,
        -4.371139006309477e-08,
        0.999999999999999,
        0.0,
        0.0,
        -0.999999999999999,
        -4.371139006309477e-08,
        0.0,
        0.0,
        0.0,
        0.0,
        1.0
      ],
      "name": "Collada visual scene group"
    },
    {
      "children": [
        3,
        4
      ],
      "name": "group3"
    },
    {
      "mesh": 0,
      "name": "defaultMaterial"
    },
    {
      "mesh": 1,
      "name": "defaultMaterial"
    }
  ],
  "samplers": [
    {
      "magFilter": 9729,
      "minFilter": 9987,
      "wrapS": 10497,
      "wrapT": 10497
    }
  ],
  "scene": 0,
  "scenes": [
    {
      "name": "Sketchfab_Scene",
      "nodes": [
        0
      ]
    }
  ],
  "textures": [
    {
      "sampler": 0,
      "source": 0
    },
    {
      "sampler": 0,
      "source": 1
    },
    {
      "sampler": 0,
      "source": 2
    },
    {
      "sampler": 0,
      "source": 3
    },
    {
      "sampler": 0,
      "source": 4
    },
    {
      "sampler": 0,
      "source": 5
    }
  ]
}
